<?xml version="1.0" standalone="no"?>
<!DOCTYPE svg PUBLIC "-//W3C//DTD SVG 20010904//EN"
 "http://www.w3.org/TR/2001/REC-SVG-20010904/DTD/svg10.dtd">
<svg version="1.0" xmlns="http://www.w3.org/2000/svg"
 width="700.000000pt" height="700.000000pt" viewBox="0 0 700.000000 700.000000"
 preserveAspectRatio="xMidYMid meet">
<metadata>
Created by potrace 1.11, written by Peter Selinger 2001-2013
</metadata>
<g transform="translate(0.000000,700.000000) scale(0.100000,-0.100000)"
fill="#000000" stroke="isNone">
<path d="M1 3495 l0 -1035 275 0 c151 0 274 3 274 8 1 4 2 178 3 387 l2 380
302 1 c167 0 306 3 309 7 4 4 7 104 7 224 l0 218 -289 1 c-159 1 -299 2 -311
3 -22 1 -22 2 -22 196 l0 195 27 0 c15 -1 166 0 337 2 l310 3 1 210 c0 116 -2
216 -4 223 -3 9 -135 12 -612 12 l-609 0 0 -1035z"/>
<path d="M2110 4523 c0 -10 -249 -467 -290 -533 -5 -8 -23 -42 -41 -75 -17
-33 -39 -71 -49 -85 -9 -14 -24 -38 -32 -55 -25 -50 -88 -165 -144 -263 -30
-52 -54 -95 -54 -97 0 -2 -26 -50 -58 -107 -32 -57 -72 -128 -89 -158 -53 -96
-85 -153 -124 -222 -22 -36 -39 -68 -39 -71 0 -2 -25 -47 -55 -100 -30 -52
-55 -100 -55 -106 0 -6 -4 -11 -9 -11 -5 0 -11 -8 -14 -17 -3 -10 -24 -51 -46
-90 l-40 -73 338 0 339 0 145 263 c80 144 159 287 176 317 17 30 57 101 88
158 31 56 60 102 65 102 4 0 17 -17 28 -37 11 -21 30 -54 43 -74 22 -36 274
-459 312 -524 11 -18 43 -72 70 -119 l50 -86 363 0 363 0 -12 23 c-7 12 -89
150 -182 307 -313 526 -634 1063 -742 1245 -59 99 -116 195 -127 214 -42 74
-148 247 -162 266 -8 11 -16 15 -16 8z"/>
<path d="M2737 4403 c42 -71 81 -137 87 -148 6 -11 16 -27 22 -35 6 -8 23 -35
36 -60 14 -25 117 -198 228 -385 112 -187 266 -446 343 -575 77 -129 196 -329
265 -445 69 -115 136 -230 150 -253 l25 -44 49 89 c27 48 64 115 83 148 18 33
96 174 174 313 78 140 141 258 141 263 0 5 5 9 10 9 6 0 10 4 10 8 0 5 41 83
91 173 101 181 121 218 166 299 17 30 119 214 227 407 108 194 196 355 196
358 0 3 -151 5 -335 5 l-335 0 -23 -37 c-13 -21 -73 -127 -133 -236 -60 -109
-118 -215 -130 -235 -11 -20 -38 -68 -59 -107 -41 -75 -126 -228 -130 -233 -1
-1 -37 57 -81 130 -43 73 -83 141 -89 150 -5 9 -36 61 -68 115 -32 54 -63 107
-70 117 -7 11 -27 44 -44 72 -18 29 -33 56 -33 60 0 4 -11 22 -25 40 -14 18
-25 35 -25 38 0 2 -16 32 -36 65 l-36 61 -364 0 -363 0 76 -127z"/>
<path d="M5224 3496 l0 -1036 281 0 280 0 0 375 -1 375 23 1 c13 0 37 1 53 1
17 0 38 -1 49 -1 13 -1 77 -102 236 -376 l218 -375 318 0 319 0 -296 440
c-162 242 -296 446 -299 452 -2 7 20 28 51 48 70 44 158 131 200 197 19 28 46
87 60 130 45 133 36 331 -21 453 -35 74 -50 95 -106 150 -57 56 -194 134 -251
144 -15 2 -31 7 -36 10 -9 6 -49 14 -102 22 -19 2 -46 7 -60 11 -14 3 -225 8
-470 10 l-446 5 0 -1036z m802 595 c61 -17 106 -51 132 -101 42 -81 18 -228
-47 -288 -52 -48 -116 -65 -246 -66 l-80 -1 -1 230 c0 127 1 233 3 236 5 11
194 3 239 -10z"/>
</g>
</svg>
